<svg xmlns="http://www.w3.org/2000/svg" version="1.1" xmlns:xlink="http://www.w3.org/1999/xlink" xmlns:svgjs="http://svgjs.dev/svgjs" width="1000" height="1000" viewBox="0 0 1000 1000"><rect width="1000" height="1000" fill="#000000"></rect><g transform="matrix(0.7,0,0,0.7,149.57576374169298,378.092941611219)"><svg viewBox="0 0 396 138" data-background-color="#ffffff" preserveAspectRatio="xMidYMid meet" height="348" width="1000" xmlns="http://www.w3.org/2000/svg" xmlns:xlink="http://www.w3.org/1999/xlink"><g id="tight-bounds" transform="matrix(1,0,0,1,0.23999651184226423,0.06064884093507317)"><svg viewBox="0 0 395.52 137.87870231812985" height="137.87870231812985" width="395.52"><g><svg viewBox="0 0 657.3129742702351 229.14001797443947" height="137.87870231812985" width="395.52"><g transform="matrix(1,0,0,1,261.79297427023516,59.74017343957827)"><svg viewBox="0 0 395.52 109.65967109528293" height="109.65967109528293" width="395.52"><g><svg viewBox="0 0 395.52 109.65967109528293" height="109.65967109528293" width="395.52"><g><svg viewBox="0 0 395.52 69.15772102161101" height="69.15772102161101" width="395.52"><g transform="matrix(1,0,0,1,0,0)"><svg width="395.52" viewBox="3 -39.54999923706055 229.0399932861328 40.04999923706055" height="69.15772102161101" data-palette-color="#ed2647"><path d="M23.05 0.5L23.05 0.5Q18.75 0.5 15.1-1 11.45-2.5 8.72-5.23 6-7.95 4.5-11.6 3-15.25 3-19.55L3-19.55Q3-23.85 4.5-27.48 6-31.1 8.72-33.83 11.45-36.55 15.1-38.05 18.75-39.55 23.05-39.55L23.05-39.55Q27.35-39.55 30.98-38.05 34.6-36.55 37.33-33.83 40.05-31.1 41.55-27.48 43.05-23.85 43.05-19.55L43.05-19.55Q43.05-15.25 41.55-11.6 40.05-7.95 37.33-5.23 34.6-2.5 30.98-1 27.35 0.5 23.05 0.5ZM23.05-2.5L23.05-2.5Q26.65-2.5 29.75-3.78 32.85-5.05 35.18-7.38 37.5-9.7 38.78-12.8 40.05-15.9 40.05-19.55L40.05-19.55Q40.05-23.15 38.78-26.25 37.5-29.35 35.18-31.68 32.85-34 29.75-35.27 26.65-36.55 23.05-36.55L23.05-36.55Q19.4-36.55 16.3-35.27 13.2-34 10.88-31.68 8.55-29.35 7.28-26.25 6-23.15 6-19.55L6-19.55Q6-15.9 7.28-12.8 8.55-9.7 10.88-7.38 13.2-5.05 16.3-3.78 19.4-2.5 23.05-2.5ZM52.55 0L52.55 0Q51.9 0 51.47-0.43 51.05-0.85 51.05-1.5L51.05-1.5 51.05-37.55Q51.05-38.2 51.47-38.63 51.9-39.05 52.55-39.05L52.55-39.05Q53.2-39.05 53.62-38.63 54.05-38.2 54.05-37.55L54.05-37.55 54.05-1.5Q54.05-0.85 53.62-0.43 53.2 0 52.55 0ZM74.55 0L65.55 0Q64.9 0 64.47-0.43 64.05-0.85 64.05-1.5L64.05-1.5 64.05-37.55Q64.05-38.25 64.47-38.65 64.9-39.05 65.55-39.05L65.55-39.05 74.55-39.05Q78.85-39.05 82.42-37.63 86-36.2 88.62-33.58 91.25-30.95 92.67-27.4 94.1-23.85 94.1-19.55L94.1-19.55Q94.1-15.25 92.67-11.68 91.25-8.1 88.62-5.48 86-2.85 82.42-1.43 78.85 0 74.55 0L74.55 0ZM67.05-36.35L67.05-2.7 74.55-2.7Q79.4-2.7 83.12-4.9 86.85-7.1 88.97-10.9 91.1-14.7 91.1-19.55L91.1-19.55Q91.1-24.4 88.97-28.18 86.85-31.95 83.12-34.15 79.4-36.35 74.55-36.35L74.55-36.35 67.05-36.35ZM103.59 0L103.59 0Q102.94 0 102.52-0.43 102.09-0.85 102.09-1.5L102.09-1.5 102.09-37.55Q102.09-38.25 102.52-38.65 102.94-39.05 103.59-39.05L103.59-39.05 113.14-39.05Q116.79-39.05 119.62-37.52 122.44-36 124.04-33.35 125.64-30.7 125.64-27.2L125.64-27.2Q125.64-23.8 124.04-21.15 122.44-18.5 119.62-17 116.79-15.5 113.14-15.5L113.14-15.5 105.09-15.5 105.09-1.5Q105.09-0.85 104.69-0.43 104.29 0 103.59 0ZM124.59 0L124.59 0Q124.04 0 123.77-0.23 123.49-0.45 123.24-0.8L123.24-0.8 113.29-16.7 116.39-17.4 125.84-2.3Q126.49-1.3 126.12-0.65 125.74 0 124.59 0ZM105.09-36.05L105.09-18.5 113.14-18.5Q115.94-18.5 118.07-19.63 120.19-20.75 121.42-22.7 122.64-24.65 122.64-27.2L122.64-27.2Q122.64-29.8 121.42-31.8 120.19-33.8 118.07-34.93 115.94-36.05 113.14-36.05L113.14-36.05 105.09-36.05ZM129.94 0L129.94 0Q128.99 0 128.62-0.75 128.24-1.5 128.59-2.15L128.59-2.15 143.74-38Q144.14-39.05 145.19-39.05L145.19-39.05Q146.19-39.05 146.64-38L146.64-38 161.84-2.15Q162.24-1.45 161.79-0.73 161.34 0 160.49 0L160.49 0Q159.99 0 159.67-0.23 159.34-0.45 159.09-0.95L159.09-0.95 144.39-36 145.99-36 131.34-0.95Q131.14-0.45 130.79-0.23 130.44 0 129.94 0ZM156.79-9.8L133.64-9.8 134.84-12.5 155.64-12.5 156.79-9.8ZM184.19 0.5L184.19 0.5Q180.19 0.5 176.66-1.07 173.14-2.65 170.44-5.43 167.74-8.2 166.19-11.83 164.64-15.45 164.64-19.55L164.64-19.55Q164.64-23.6 166.14-27.23 167.64-30.85 170.31-33.63 172.99-36.4 176.54-37.98 180.09-39.55 184.19-39.55L184.19-39.55Q187.64-39.55 190.74-38.45 193.84-37.35 196.54-35.1L196.54-35.1Q196.99-34.75 196.99-34.13 196.99-33.5 196.59-33.02 196.19-32.55 195.49-32.55L195.49-32.55Q195.29-32.55 195.09-32.63 194.89-32.7 194.69-32.83 194.49-32.95 194.24-33.15L194.24-33.15Q192.24-34.95 189.69-35.75 187.14-36.55 184.19-36.55L184.19-36.55Q180.84-36.55 177.84-35.18 174.84-33.8 172.54-31.43 170.24-29.05 168.94-26 167.64-22.95 167.64-19.55L167.64-19.55Q167.64-16.05 168.94-12.95 170.24-9.85 172.51-7.5 174.79-5.15 177.79-3.83 180.79-2.5 184.19-2.5L184.19-2.5Q187.14-2.5 189.71-3.4 192.29-4.3 194.54-6.15L194.54-6.15Q194.94-6.5 195.49-6.4 196.04-6.3 196.44-5.9 196.84-5.5 196.84-4.85L196.84-4.85Q196.84-4.55 196.79-4.3 196.74-4.05 196.49-3.8L196.49-3.8Q194.04-1.35 190.81-0.43 187.59 0.5 184.19 0.5ZM196.84-17.55L196.84-4.85 193.84-5.5 193.84-16.3 185.44-16.3Q184.79-16.3 184.36-16.7 183.94-17.1 183.94-17.7L183.94-17.7Q183.94-18.25 184.36-18.63 184.79-19 185.44-19L185.44-19 195.34-19Q196.04-19 196.44-18.6 196.84-18.2 196.84-17.55L196.84-17.55ZM230.54 0L206.49 0Q205.84 0 205.41-0.43 204.99-0.85 204.99-1.5L204.99-1.5 204.99-37.55Q204.99-38.2 205.41-38.63 205.84-39.05 206.49-39.05L206.49-39.05 230.54-39.05Q231.14-39.05 231.59-38.63 232.04-38.2 232.04-37.55L232.04-37.55Q232.04-36.95 231.59-36.5 231.14-36.05 230.54-36.05L230.54-36.05 207.99-36.05 207.99-21.05 224.54-21.05Q225.19-21.05 225.61-20.63 226.04-20.2 226.04-19.55L226.04-19.55Q226.04-18.9 225.61-18.45 225.19-18 224.54-18L224.54-18 207.99-18 207.99-3 230.54-3Q231.14-3 231.59-2.55 232.04-2.1 232.04-1.5L232.04-1.5Q232.04-0.85 231.59-0.43 231.14 0 230.54 0L230.54 0Z" opacity="1" transform="matrix(1,0,0,1,0,0)" fill="#ffffff" class="undefined-text-0" data-fill-palette-color="primary" id="text-0"></path></svg></g></svg></g><g transform="matrix(1,0,0,1,0,85.48419916950886)"><svg viewBox="0 0 232.20979200000002 24.175471925774087" height="24.175471925774087" width="232.20979200000002"><g transform="matrix(1,0,0,1,0,0)"><svg width="232.20979200000002" viewBox="2.6500000953674316 -39.20000076293945 463.4100036621094 48.25" height="24.175471925774087" data-palette-color="#ed2647"><path d="M10.65-26.5L10.65-26.5Q12.65-26.5 14.13-25.88 15.6-25.25 16.25-24.75L16.25-24.75Q17.9-23.45 18.3-26.45L18.3-26.45 19.4-26.45Q19.3-25.05 19.25-23.08 19.2-21.1 19.2-17.85L19.2-17.85 18.1-17.85Q17.8-19.7 17.07-21.45 16.35-23.2 14.98-24.35 13.6-25.5 11.4-25.5L11.4-25.5Q9.75-25.5 8.65-24.58 7.55-23.65 7.55-21.85L7.55-21.85Q7.55-20.35 8.45-19.25 9.35-18.15 10.78-17.2 12.2-16.25 13.85-15.15L13.85-15.15Q16.6-13.3 18.5-11.4 20.4-9.5 20.4-6.45L20.4-6.45Q20.4-4.15 19.18-2.55 17.95-0.95 15.95-0.13 13.95 0.7 11.55 0.7L11.55 0.7Q10.35 0.7 9.3 0.48 8.25 0.25 7.35-0.1L7.35-0.1Q6.8-0.4 6.28-0.73 5.75-1.05 5.25-1.35L5.25-1.35Q4.75-1.7 4.35-1.25 3.95-0.8 3.75 0.35L3.75 0.35 2.65 0.35Q2.75-1.25 2.8-3.55 2.85-5.85 2.85-9.65L2.85-9.65 3.95-9.65Q4.3-6.9 5-4.8 5.7-2.7 7.08-1.53 8.45-0.35 10.85-0.35L10.85-0.35Q12.25-0.35 13.6-1.33 14.95-2.3 14.95-4.7L14.95-4.7Q14.95-6.9 13.43-8.33 11.9-9.75 9.5-11.35L9.5-11.35Q7.8-12.55 6.28-13.73 4.75-14.9 3.8-16.38 2.85-17.85 2.85-19.9L2.85-19.9Q2.85-22.15 3.93-23.6 5-25.05 6.8-25.78 8.6-26.5 10.65-26.5ZM41.35-26.5L41.35-26.5Q43.35-26.5 44.62-25.98 45.9-25.45 46.75-24.55L46.75-24.55Q47.65-23.6 48.02-22.1 48.4-20.6 48.4-18.05L48.4-18.05 48.4-4.65Q48.4-2.55 49.22-1.8 50.05-1.05 52-1.05L52-1.05 52 0Q51.15-0.05 49.35-0.13 47.55-0.2 45.8-0.2L45.8-0.2Q44.1-0.2 42.42-0.13 40.75-0.05 39.9 0L39.9 0 39.9-1.05Q41.6-1.05 42.3-1.8 43-2.55 43-4.65L43-4.65 43-19.45Q43-20.9 42.75-22.08 42.5-23.25 41.7-23.98 40.9-24.7 39.3-24.7L39.3-24.7Q36.5-24.7 34.72-22.4 32.95-20.1 32.95-16.7L32.95-16.7 32.95-4.65Q32.95-2.55 33.67-1.8 34.4-1.05 36.05-1.05L36.05-1.05 36.05 0Q35.25-0.05 33.62-0.13 32-0.2 30.25-0.2L30.25-0.2Q28.55-0.2 26.7-0.13 24.85-0.05 23.95 0L23.95 0 23.95-1.05Q25.9-1.05 26.72-1.8 27.55-2.55 27.55-4.65L27.55-4.65 27.55-20.35Q27.55-22.6 26.8-23.68 26.05-24.75 23.95-24.75L23.95-24.75 23.95-25.8Q25.55-25.65 27.05-25.65L27.05-25.65Q28.75-25.65 30.22-25.83 31.7-26 32.95-26.35L32.95-26.35 32.95-20.9Q34.25-24 36.52-25.25 38.8-26.5 41.35-26.5ZM71.15-26.5L71.15-26.5Q73.05-26.5 74.34-25.98 75.65-25.45 76.45-24.55L76.45-24.55Q77.34-23.6 77.7-22.03 78.05-20.45 78.05-18.05L78.05-18.05 78.05-4.65Q78.05-2.55 78.84-1.8 79.65-1.05 81.55-1.05L81.55-1.05 81.55 0Q80.7-0.05 78.92-0.13 77.15-0.2 75.45-0.2L75.45-0.2Q73.75-0.2 72.12-0.13 70.5-0.05 69.65 0L69.65 0 69.65-1.05Q71.3-1.05 71.97-1.8 72.65-2.55 72.65-4.65L72.65-4.65 72.65-19.45Q72.65-20.9 72.45-22.08 72.25-23.25 71.52-23.98 70.8-24.7 69.25-24.7L69.25-24.7Q67.5-24.7 66.12-23.65 64.75-22.6 63.92-20.78 63.1-18.95 63.1-16.7L63.1-16.7 63.1-4.65Q63.1-2.55 63.8-1.8 64.5-1.05 66.09-1.05L66.09-1.05 66.09 0Q65.3-0.05 63.7-0.13 62.1-0.2 60.4-0.2L60.4-0.2Q58.7-0.2 56.85-0.13 55-0.05 54.1 0L54.1 0 54.1-1.05Q56.05-1.05 56.87-1.8 57.7-2.55 57.7-4.65L57.7-4.65 57.7-20.35Q57.7-22.6 56.95-23.68 56.2-24.75 54.1-24.75L54.1-24.75 54.1-25.8Q55.7-25.65 57.2-25.65L57.2-25.65Q58.9-25.65 60.37-25.83 61.85-26 63.1-26.35L63.1-26.35 63.1-20.9Q64.4-23.9 66.57-25.2 68.75-26.5 71.15-26.5ZM86.2-26.5L86.2-26.5Q88.09-26.5 89.4-25.98 90.7-25.45 91.5-24.55L91.5-24.55Q92.4-23.6 92.75-22.03 93.09-20.45 93.09-18.05L93.09-18.05 93.09-4.65Q93.09-2.55 93.92-1.8 94.75-1.05 96.7-1.05L96.7-1.05 96.7 0Q95.84-0.05 94.05-0.13 92.25-0.2 90.5-0.2L90.5-0.2Q88.8-0.2 87.17-0.13 85.55-0.05 84.7 0L84.7 0 84.7-1.05Q86.34-1.05 87.02-1.8 87.7-2.55 87.7-4.65L87.7-4.65 87.7-19.45Q87.7-20.9 87.5-22.08 87.3-23.25 86.55-23.98 85.8-24.7 84.2-24.7L84.2-24.7Q81.59-24.7 79.82-22.38 78.05-20.05 78.05-16.65L78.05-16.65 77.84-20.8Q79.2-24.1 81.47-25.3 83.75-26.5 86.2-26.5ZM107.49-26.35L107.49-26.35 107.49 4.3Q107.49 6.5 108.74 7.25 109.99 8 112.19 8L112.19 8 112.19 9.05Q111.04 9 108.99 8.93 106.94 8.85 104.59 8.85L104.59 8.85Q102.94 8.85 101.34 8.93 99.74 9 98.89 9.05L98.89 9.05 98.89 8Q100.64 8 101.37 7.33 102.09 6.65 102.09 4.8L102.09 4.8 102.09-20.35Q102.09-22.6 101.34-23.68 100.59-24.75 98.49-24.75L98.49-24.75 98.49-25.8Q100.09-25.65 101.59-25.65L101.59-25.65Q103.24-25.65 104.74-25.83 106.24-26 107.49-26.35ZM115.44-26.5L115.44-26.5Q119.34-26.5 121.97-23.35 124.59-20.2 124.59-14.05L124.59-14.05Q124.59-10.05 123.34-6.68 122.09-3.3 119.57-1.3 117.04 0.7 113.09 0.7L113.09 0.7Q110.89 0.7 109.22-0.25 107.54-1.2 106.84-2.65L106.84-2.65 107.34-3.35Q107.99-2.1 109.17-1.3 110.34-0.5 112.09-0.5L112.09-0.5Q114.69-0.5 116.17-2.18 117.64-3.85 118.24-6.73 118.84-9.6 118.84-13.25L118.84-13.25Q118.84-17.35 118.24-19.88 117.64-22.4 116.44-23.58 115.24-24.75 113.54-24.75L113.54-24.75Q111.29-24.75 109.47-22.95 107.64-21.15 107.24-17.55L107.24-17.55 106.74-18.6Q107.39-22.35 109.77-24.43 112.14-26.5 115.44-26.5ZM151.54-39.2L151.54-39.2 151.54-5.45Q151.54-3.2 152.32-2.13 153.09-1.05 155.14-1.05L155.14-1.05 155.14 0Q153.59-0.15 152.04-0.15L152.04-0.15Q150.34-0.15 148.87 0 147.39 0.15 146.14 0.55L146.14 0.55 146.14-33.2Q146.14-35.45 145.37-36.52 144.59-37.6 142.54-37.6L142.54-37.6 142.54-38.65Q144.14-38.5 145.64-38.5L145.64-38.5Q147.29-38.5 148.79-38.68 150.29-38.85 151.54-39.2ZM140.29-26.5L140.29-26.5Q142.49-26.5 144.32-25.55 146.14-24.6 146.89-22.35L146.89-22.35 146.29-21.8Q145.59-23.6 144.24-24.43 142.89-25.25 141.19-25.25L141.19-25.25Q138.34-25.25 136.54-22.23 134.74-19.2 134.79-12.9L134.79-12.9Q134.79-8.75 135.49-6.13 136.19-3.5 137.57-2.25 138.94-1 140.89-1L140.89-1Q142.84-1 144.42-2.65 145.99-4.3 146.29-7.4L146.29-7.4 146.74-6.35Q146.24-2.95 144.34-1.13 142.44 0.7 139.24 0.7L139.24 0.7Q136.19 0.7 133.87-0.78 131.54-2.25 130.29-5.28 129.04-8.3 129.04-12.9L129.04-12.9Q129.04-17.45 130.57-20.48 132.09-23.5 134.64-25 137.19-26.5 140.29-26.5ZM186.74-26.5L186.74-26.5Q188.64-26.5 189.94-25.98 191.24-25.45 192.04-24.55L192.04-24.55Q192.94-23.6 193.29-22.03 193.64-20.45 193.64-18.05L193.64-18.05 193.64-4.65Q193.64-2.55 194.44-1.8 195.24-1.05 197.14-1.05L197.14-1.05 197.14 0Q196.29-0.05 194.51-0.13 192.74-0.2 191.04-0.2L191.04-0.2Q189.34-0.2 187.71-0.13 186.09-0.05 185.24 0L185.24 0 185.24-1.05Q186.89-1.05 187.56-1.8 188.24-2.55 188.24-4.65L188.24-4.65 188.24-19.45Q188.24-20.9 188.04-22.08 187.84-23.25 187.11-23.98 186.39-24.7 184.84-24.7L184.84-24.7Q183.09-24.7 181.71-23.65 180.34-22.6 179.51-20.78 178.69-18.95 178.69-16.7L178.69-16.7 178.69-4.65Q178.69-2.55 179.39-1.8 180.09-1.05 181.69-1.05L181.69-1.05 181.69 0Q180.89-0.05 179.28-0.13 177.69-0.2 175.99-0.2L175.99-0.2Q174.28-0.2 172.44-0.13 170.59-0.05 169.69 0L169.69 0 169.69-1.05Q171.64-1.05 172.46-1.8 173.28-2.55 173.28-4.65L173.28-4.65 173.28-20.35Q173.28-22.6 172.53-23.68 171.78-24.75 169.69-24.75L169.69-24.75 169.69-25.8Q171.28-25.65 172.78-25.65L172.78-25.65Q174.49-25.65 175.96-25.83 177.44-26 178.69-26.35L178.69-26.35 178.69-20.9Q179.99-23.9 182.16-25.2 184.34-26.5 186.74-26.5ZM201.79-26.5L201.79-26.5Q203.69-26.5 204.99-25.98 206.29-25.45 207.09-24.55L207.09-24.55Q207.99-23.6 208.34-22.03 208.69-20.45 208.69-18.05L208.69-18.05 208.69-4.65Q208.69-2.55 209.51-1.8 210.34-1.05 212.29-1.05L212.29-1.05 212.29 0Q211.44-0.05 209.64-0.13 207.84-0.2 206.09-0.2L206.09-0.2Q204.39-0.2 202.76-0.13 201.14-0.05 200.29 0L200.29 0 200.29-1.05Q201.94-1.05 202.61-1.8 203.29-2.55 203.29-4.65L203.29-4.65 203.29-19.45Q203.29-20.9 203.09-22.08 202.89-23.25 202.14-23.98 201.39-24.7 199.79-24.7L199.79-24.7Q197.19-24.7 195.41-22.38 193.64-20.05 193.64-16.65L193.64-16.65 193.44-20.8Q194.79-24.1 197.06-25.3 199.34-26.5 201.79-26.5ZM220.38-38.4L220.38-38.4Q221.93-38.4 222.98-37.43 224.03-36.45 224.03-35L224.03-35Q224.03-33.55 222.98-32.58 221.93-31.6 220.38-31.6L220.38-31.6Q218.83-31.6 217.78-32.58 216.73-33.55 216.73-35L216.73-35Q216.73-36.45 217.78-37.43 218.83-38.4 220.38-38.4ZM223.38-26.35L223.38-26.35 223.38-4.65Q223.38-2.55 224.21-1.8 225.03-1.05 226.98-1.05L226.98-1.05 226.98 0Q226.13-0.05 224.36-0.13 222.58-0.2 220.73-0.2L220.73-0.2Q218.98-0.2 217.13-0.13 215.28-0.05 214.38 0L214.38 0 214.38-1.05Q216.33-1.05 217.16-1.8 217.98-2.55 217.98-4.65L217.98-4.65 217.98-20.35Q217.98-22.6 217.23-23.68 216.48-24.75 214.38-24.75L214.38-24.75 214.38-25.8Q215.98-25.65 217.48-25.65L217.48-25.65Q219.18-25.65 220.66-25.83 222.13-26 223.38-26.35ZM246.43-26.5L246.43-26.5Q248.33-26.5 249.63-25.98 250.93-25.45 251.73-24.55L251.73-24.55Q252.63-23.6 252.98-22.03 253.33-20.45 253.33-18.05L253.33-18.05 253.33-4.65Q253.33-2.55 254.13-1.8 254.93-1.05 256.83-1.05L256.83-1.05 256.83 0Q255.98-0.05 254.21-0.13 252.43-0.2 250.73-0.2L250.73-0.2Q249.03-0.2 247.41-0.13 245.78-0.05 244.93 0L244.93 0 244.93-1.05Q246.58-1.05 247.26-1.8 247.93-2.55 247.93-4.65L247.93-4.65 247.93-19.45Q247.93-20.9 247.73-22.08 247.53-23.25 246.81-23.98 246.08-24.7 244.53-24.7L244.53-24.7Q242.78-24.7 241.41-23.65 240.03-22.6 239.21-20.78 238.38-18.95 238.38-16.7L238.38-16.7 238.38-4.65Q238.38-2.55 239.08-1.8 239.78-1.05 241.38-1.05L241.38-1.05 241.38 0Q240.58-0.05 238.98-0.13 237.38-0.2 235.68-0.2L235.68-0.2Q233.98-0.2 232.13-0.13 230.28-0.05 229.38 0L229.38 0 229.38-1.05Q231.33-1.05 232.16-1.8 232.98-2.55 232.98-4.65L232.98-4.65 232.98-20.35Q232.98-22.6 232.23-23.68 231.48-24.75 229.38-24.75L229.38-24.75 229.38-25.8Q230.98-25.65 232.48-25.65L232.48-25.65Q234.18-25.65 235.66-25.83 237.13-26 238.38-26.35L238.38-26.35 238.38-20.9Q239.68-23.9 241.86-25.2 244.03-26.5 246.43-26.5ZM261.48-26.5L261.48-26.5Q263.38-26.5 264.68-25.98 265.98-25.45 266.78-24.55L266.78-24.55Q267.68-23.6 268.03-22.03 268.38-20.45 268.38-18.05L268.38-18.05 268.38-4.65Q268.38-2.55 269.21-1.8 270.03-1.05 271.98-1.05L271.98-1.05 271.98 0Q271.13-0.05 269.33-0.13 267.53-0.2 265.78-0.2L265.78-0.2Q264.08-0.2 262.46-0.13 260.83-0.05 259.98 0L259.98 0 259.98-1.05Q261.63-1.05 262.31-1.8 262.98-2.55 262.98-4.65L262.98-4.65 262.98-19.45Q262.98-20.9 262.78-22.08 262.58-23.25 261.83-23.98 261.08-24.7 259.48-24.7L259.48-24.7Q256.88-24.7 255.11-22.38 253.33-20.05 253.33-16.65L253.33-16.65 253.13-20.8Q254.48-24.1 256.76-25.3 259.03-26.5 261.48-26.5ZM280.08-38.4L280.08-38.4Q281.63-38.4 282.68-37.43 283.73-36.45 283.73-35L283.73-35Q283.73-33.55 282.68-32.58 281.63-31.6 280.08-31.6L280.08-31.6Q278.53-31.6 277.48-32.58 276.43-33.55 276.43-35L276.43-35Q276.43-36.45 277.48-37.43 278.53-38.4 280.08-38.4ZM283.08-26.35L283.08-26.35 283.08-4.65Q283.08-2.55 283.9-1.8 284.73-1.05 286.68-1.05L286.68-1.05 286.68 0Q285.83-0.05 284.05-0.13 282.28-0.2 280.43-0.2L280.43-0.2Q278.68-0.2 276.83-0.13 274.98-0.05 274.08 0L274.08 0 274.08-1.05Q276.03-1.05 276.85-1.8 277.68-2.55 277.68-4.65L277.68-4.65 277.68-20.35Q277.68-22.6 276.93-23.68 276.18-24.75 274.08-24.75L274.08-24.75 274.08-25.8Q275.68-25.65 277.18-25.65L277.18-25.65Q278.88-25.65 280.35-25.83 281.83-26 283.08-26.35ZM301.78-26.5L301.78-26.5Q303.48-26.5 305.03-26.08 306.58-25.65 307.73-24.9L307.73-24.9Q308.93-24.15 309.55-23.1 310.18-22.05 310.18-20.8L310.18-20.8Q310.18-19.3 309.33-18.45 308.48-17.6 307.13-17.6L307.13-17.6Q305.78-17.6 304.88-18.35 303.98-19.1 303.98-20.5L303.98-20.5Q303.98-21.8 304.73-22.63 305.48-23.45 306.48-23.7L306.48-23.7Q306.03-24.45 304.9-24.98 303.78-25.5 302.48-25.5L302.48-25.5Q301.13-25.5 299.9-24.8 298.68-24.1 297.73-22.65 296.78-21.2 296.2-18.9 295.63-16.6 295.63-13.35L295.63-13.35Q295.63-9.15 296.6-6.68 297.58-4.2 299.18-3.15 300.78-2.1 302.63-2.1L302.63-2.1Q304.38-2.1 306.33-3.13 308.28-4.15 309.63-6.9L309.63-6.9 310.58-6.55Q310.03-4.9 308.85-3.2 307.68-1.5 305.78-0.4 303.88 0.7 301.13 0.7L301.13 0.7Q297.98 0.7 295.43-0.85 292.88-2.4 291.38-5.38 289.88-8.35 289.88-12.65L289.88-12.65Q289.88-16.85 291.4-19.98 292.93-23.1 295.63-24.8 298.33-26.5 301.78-26.5ZM335.02-26.5L335.02-26.5Q337.02-26.5 338.5-25.88 339.97-25.25 340.62-24.75L340.62-24.75Q342.27-23.45 342.67-26.45L342.67-26.45 343.77-26.45Q343.67-25.05 343.62-23.08 343.57-21.1 343.57-17.85L343.57-17.85 342.47-17.85Q342.17-19.7 341.44-21.45 340.72-23.2 339.35-24.35 337.97-25.5 335.77-25.5L335.77-25.5Q334.12-25.5 333.02-24.58 331.92-23.65 331.92-21.85L331.92-21.85Q331.92-20.35 332.82-19.25 333.72-18.15 335.14-17.2 336.57-16.25 338.22-15.15L338.22-15.15Q340.97-13.3 342.87-11.4 344.77-9.5 344.77-6.45L344.77-6.45Q344.77-4.15 343.55-2.55 342.32-0.95 340.32-0.13 338.32 0.7 335.92 0.7L335.92 0.7Q334.72 0.7 333.67 0.48 332.62 0.25 331.72-0.1L331.72-0.1Q331.17-0.4 330.64-0.73 330.12-1.05 329.62-1.35L329.62-1.35Q329.12-1.7 328.72-1.25 328.32-0.8 328.12 0.35L328.12 0.35 327.02 0.35Q327.12-1.25 327.17-3.55 327.22-5.85 327.22-9.65L327.22-9.65 328.32-9.65Q328.67-6.9 329.37-4.8 330.07-2.7 331.44-1.53 332.82-0.35 335.22-0.35L335.22-0.35Q336.62-0.35 337.97-1.33 339.32-2.3 339.32-4.7L339.32-4.7Q339.32-6.9 337.8-8.33 336.27-9.75 333.87-11.35L333.87-11.35Q332.17-12.55 330.64-13.73 329.12-14.9 328.17-16.38 327.22-17.85 327.22-19.9L327.22-19.9Q327.22-22.15 328.3-23.6 329.37-25.05 331.17-25.78 332.97-26.5 335.02-26.5ZM360.72-26.5L360.72-26.5Q365.12-26.5 367.62-23.85 370.12-21.2 370.12-15.45L370.12-15.45 352.87-15.45 352.77-16.4 364.82-16.4Q364.87-18.85 364.42-20.93 363.97-23 363.02-24.25 362.07-25.5 360.52-25.5L360.52-25.5Q358.37-25.5 356.79-23.23 355.22-20.95 354.87-15.95L354.87-15.95 355.02-15.7Q354.97-15 354.92-14.18 354.87-13.35 354.87-12.55L354.87-12.55Q354.87-9.1 355.92-6.75 356.97-4.4 358.67-3.23 360.37-2.05 362.12-2.05L362.12-2.05Q364.12-2.05 365.99-3.05 367.87-4.05 369.22-6.75L369.22-6.75 370.22-6.35Q369.62-4.65 368.37-3 367.12-1.35 365.17-0.33 363.22 0.7 360.62 0.7L360.62 0.7Q357.12 0.7 354.52-0.88 351.92-2.45 350.52-5.4 349.12-8.35 349.12-12.4L349.12-12.4Q349.12-16.85 350.57-20 352.02-23.15 354.64-24.83 357.27-26.5 360.72-26.5ZM389.56-26.5L389.56-26.5Q391.01-26.5 392.04-25.9 393.06-25.3 393.59-24.38 394.12-23.45 394.12-22.3L394.12-22.3Q394.12-20.85 393.24-19.83 392.37-18.8 390.92-18.8L390.92-18.8Q389.67-18.8 388.79-19.55 387.92-20.3 387.92-21.6L387.92-21.6Q387.92-22.7 388.49-23.48 389.06-24.25 389.81-24.7L389.81-24.7Q389.31-25.1 388.62-25.05L388.62-25.05Q386.81-24.95 385.44-23.58 384.06-22.2 383.26-20.25 382.47-18.3 382.47-16.65L382.47-16.65 382.47-5.15Q382.47-2.7 383.81-1.88 385.17-1.05 387.56-1.05L387.56-1.05 387.56 0Q386.42-0.05 384.29-0.13 382.17-0.2 379.81-0.2L379.81-0.2Q378.01-0.2 376.22-0.13 374.42-0.05 373.47 0L373.47 0 373.47-1.05Q375.42-1.05 376.24-1.8 377.06-2.55 377.06-4.65L377.06-4.65 377.06-20.35Q377.06-22.6 376.31-23.68 375.56-24.75 373.47-24.75L373.47-24.75 373.47-25.8Q375.06-25.65 376.56-25.65L376.56-25.65Q378.26-25.65 379.74-25.83 381.22-26 382.47-26.35L382.47-26.35 382.47-20.6Q383.06-22.05 384.06-23.4 385.06-24.75 386.47-25.63 387.87-26.5 389.56-26.5ZM419.36-25.8L419.36-25.8 419.36-24.8Q418.41-24.65 417.59-23.83 416.76-23 416.06-21L416.06-21 408.16 0.2Q407.76 0.2 407.34 0.2 406.91 0.2 406.51 0.2L406.51 0.2 397.41-21.95Q396.61-23.9 395.84-24.33 395.06-24.75 394.51-24.75L394.51-24.75 394.51-25.8Q395.71-25.7 396.99-25.63 398.26-25.55 399.81-25.55L399.81-25.55Q401.36-25.55 403.09-25.63 404.81-25.7 406.31-25.8L406.31-25.8 406.31-24.75Q405.11-24.75 404.19-24.6 403.26-24.45 402.99-23.73 402.71-23 403.31-21.25L403.31-21.25 409.46-5.75 409.06-5.35 414.21-19Q415.31-22 414.51-23.3 413.71-24.6 411.16-24.8L411.16-24.8 411.16-25.8Q412.41-25.75 413.44-25.7 414.46-25.65 415.56-25.65L415.56-25.65Q416.66-25.65 417.64-25.7 418.61-25.75 419.36-25.8ZM432.66-26.5L432.66-26.5Q437.06-26.5 439.56-23.85 442.06-21.2 442.06-15.45L442.06-15.45 424.81-15.45 424.71-16.4 436.76-16.4Q436.81-18.85 436.36-20.93 435.91-23 434.96-24.25 434.01-25.5 432.46-25.5L432.46-25.5Q430.31-25.5 428.74-23.23 427.16-20.95 426.81-15.95L426.81-15.95 426.96-15.7Q426.91-15 426.86-14.18 426.81-13.35 426.81-12.55L426.81-12.55Q426.81-9.1 427.86-6.75 428.91-4.4 430.61-3.23 432.31-2.05 434.06-2.05L434.06-2.05Q436.06-2.05 437.94-3.05 439.81-4.05 441.16-6.75L441.16-6.75 442.16-6.35Q441.56-4.65 440.31-3 439.06-1.35 437.11-0.33 435.16 0.7 432.56 0.7L432.56 0.7Q429.06 0.7 426.46-0.88 423.86-2.45 422.46-5.4 421.06-8.35 421.06-12.4L421.06-12.4Q421.06-16.85 422.51-20 423.96-23.15 426.59-24.83 429.21-26.5 432.66-26.5ZM461.51-26.5L461.51-26.5Q462.96-26.5 463.98-25.9 465.01-25.3 465.53-24.38 466.06-23.45 466.06-22.3L466.06-22.3Q466.06-20.85 465.18-19.83 464.31-18.8 462.86-18.8L462.86-18.8Q461.61-18.8 460.73-19.55 459.86-20.3 459.86-21.6L459.86-21.6Q459.86-22.7 460.43-23.48 461.01-24.25 461.76-24.7L461.76-24.7Q461.26-25.1 460.56-25.05L460.56-25.05Q458.76-24.95 457.38-23.58 456.01-22.2 455.21-20.25 454.41-18.3 454.41-16.65L454.41-16.65 454.41-5.15Q454.41-2.7 455.76-1.88 457.11-1.05 459.51-1.05L459.51-1.05 459.51 0Q458.36-0.05 456.23-0.13 454.11-0.2 451.76-0.2L451.76-0.2Q449.96-0.2 448.16-0.13 446.36-0.05 445.41 0L445.41 0 445.41-1.05Q447.36-1.05 448.18-1.8 449.01-2.55 449.01-4.65L449.01-4.65 449.01-20.35Q449.01-22.6 448.26-23.68 447.51-24.75 445.41-24.75L445.41-24.75 445.41-25.8Q447.01-25.65 448.51-25.65L448.51-25.65Q450.21-25.65 451.68-25.83 453.16-26 454.41-26.35L454.41-26.35 454.41-20.6Q455.01-22.05 456.01-23.4 457.01-24.75 458.41-25.63 459.81-26.5 461.51-26.5Z" opacity="1" transform="matrix(1,0,0,1,0,0)" fill="#ffffff" class="undefined-text-1" data-fill-palette-color="secondary" id="text-1"></path></svg></g></svg></g></svg></g></svg></g><g><svg viewBox="0 0 229.14001797443947 229.14001797443947" height="229.14001797443947" width="229.14001797443947"><g><svg></svg></g><g id="icon-0"><svg viewBox="0 0 229.14001797443947 229.14001797443947" height="229.14001797443947" width="229.14001797443947"><g><path d="M0 114.57c0-63.275 51.295-114.57 114.57-114.57 63.275 0 114.57 51.295 114.57 114.57 0 63.275-51.295 114.57-114.57 114.57-63.275 0-114.57-51.295-114.57-114.57zM114.57 222.903c59.831 0 108.333-48.502 108.333-108.333 0-59.831-48.502-108.333-108.333-108.333-59.831 0-108.333 48.502-108.333 108.333 0 59.831 48.502 108.333 108.333 108.333z" data-fill-palette-color="accent" fill="#ffffff" stroke="transparent"></path></g><g transform="matrix(1,0,0,1,50.07647843024684,46.6087555443916)"><svg viewBox="0 0 128.9870611139458 135.92250688565628" height="135.92250688565628" width="128.9870611139458"><g><svg xmlns="http://www.w3.org/2000/svg" xmlns:xlink="http://www.w3.org/1999/xlink" version="1.1" x="0" y="0" viewBox="8.105977058410645 5.855280876159668 83.77904510498047 88.28372192382812" enable-background="new 0 0 100 100" xml:space="preserve" height="135.92250688565628" width="128.9870611139458" class="icon-c-0" data-fill-palette-color="accent" id="c-0"><path fill="#ffffff" d="M83.221 61.938v-0.006c-0.111-0.064-0.237-0.107-0.351-0.168-0.396-0.209-0.798-0.406-1.213-0.58-0.23-0.098-0.468-0.182-0.701-0.268-0.331-0.121-0.666-0.234-1.004-0.332-0.267-0.082-0.535-0.152-0.806-0.217-0.329-0.078-0.662-0.141-0.999-0.195-0.277-0.049-0.556-0.102-0.84-0.137-0.393-0.045-0.794-0.061-1.194-0.076-0.21-0.008-0.415-0.041-0.625-0.041-5.297 0-10.017 2.615-13.015 6.668-0.144-0.033-0.279-0.045-0.423-0.076-3.202-2.111-7.344-3.393-11.879-3.393-2.721 0-5.441 0.453-7.983 1.434-1.859 0.717-3.666 1.627-5.214 2.896-0.438 0.357-0.85 0.754-1.231 1.172-0.518 0.566-0.9 1.254-1.584 1.65-0.136 0.08-0.301 0.137-0.471 0.176h-0.584c-0.217-0.045-0.419-0.143-0.557-0.348-0.008-0.012-0.02-0.014-0.027-0.023-0.411-0.658-0.337-1.646-0.368-2.393-0.043-0.918-0.075-1.836-0.165-2.752-0.008-0.078-0.006-0.158-0.014-0.24-0.15-1.342-0.268-2.689-0.373-4.039-0.145-1.754-0.256-3.529-0.343-5.258l-0.013-0.297c-0.184-3.537-0.274-7.322 0.281-11.03 0.518-3.439 1.547-6.902 2.98-10.014 0.252-0.549 0.541-1.102 0.82-1.635 0.188-0.351 0.379-0.719 0.562-1.086 0.055-0.108 0.111-0.226 0.17-0.35 0.294-0.621 0.658-1.389 1.144-1.676 0.191-0.109 0.435-0.161 0.772-0.161 0.199 0 0.416 0.019 0.623 0.034 0.148 0.014 0.306 0.027 0.455 0.031 0.302 0.014 0.609 0.035 0.914 0.051 0.559 0.035 1.139 0.069 1.715 0.069 0.521 0 0.975-0.026 1.396-0.088 0.383-0.054 0.73-0.231 1.038-0.387 0.099-0.051 0.193-0.099 0.281-0.138 1.261-0.576 2.551-1.143 3.8-1.686 0.481-0.21 0.967-0.422 1.453-0.635 0.918 0.047 1.831 0.055 2.708-0.289 1.225-0.48 1.631-2.092 1.552-3.263-0.019-0.263-0.072-0.487-0.157-0.682-0.248-0.581-0.77-0.879-1.394-1.001 0.263-0.805 0.579-1.521 0.987-2.349l0.035-0.071c0.486-0.985 0.989-2.264 0.561-3.414l-0.004-0.002c0-0.003 0-0.003 0-0.005-0.65-1.728-7.911-6.76-9.419-7.79-0.229-0.186-2.103-1.711-3.77-1.672-1.135 0.026-4.861 3.116-6.982 4.956-2.654 2.304-5.808 5.3-6.465 6.436-0.505 0.865-1.07 1.965-1.115 2.559l-0.595 1.383c-1.112 2.58-2.596 5.688-4.164 8.977-0.263 0.549-0.518 1.1-0.778 1.648-0.622 1.309-1.242 2.614-1.853 3.926-0.164 0.35-0.326 0.688-0.491 1.043-0.732 1.576-1.443 3.163-2.152 4.753-2.578 5.815-5.014 11.928-6.577 17.715-0.24 0.883-0.433 1.742-0.603 2.586-0.151 0.799-0.313 1.602-0.419 2.402-0.026 0.178-0.048 0.354-0.072 0.525-0.186 1.521-0.321 3.045-0.363 4.566 0 0.07 0 0.141-0.003 0.211-0.035 1.605 0.029 3.215 0.239 4.824 0.23 1.764 0.584 3.529 0.743 5.301 0 0.004 0 0.004 0 0.006l0.032 0.211c-0.03 0.152-0.063 0.348-0.101 0.564-0.069 0.496-0.151 0.994-0.204 1.469-0.013 0.115-0.019 0.236-0.03 0.354-0.037 0.635-0.034 1.281 0.133 1.898 0.247 0.908 0.94 1.764 1.741 2.367 0.36 0.219 0.87 0.506 1.549 0.834 0.719 0.332 1.45 0.652 2.19 0.953 0.303 0.119 0.582 0.236 0.919 0.359 0.049 0.02 0.104 0.035 0.153 0.059 0.924 0.346 1.877 0.621 2.819 0.922 0.512 0.158 1.006 0.311 1.576 0.467 6.718 1.846 14.509 2.859 21.995 3.414 1.964 0.141 3.934 0.26 5.9 0.35 0.828 0.037 1.651 0.078 2.458 0.104 2.244 0.072 4.488 0.117 6.733 0.127 0.439 0.004 0.908 0.012 1.33 0.014 1.165 0 2.327-0.025 3.49-0.037 3.258-0.039 6.595-0.113 10.043-0.26l0.617-0.025c0 0 1.702 0.049 2.802 0.057 1.59-0.115 3.168-0.299 4.682-0.709 0.162-0.041 0.802-0.229 1.473-0.451 0.862-0.283 1.771-0.633 1.809-0.846 5.158-2.861 8.679-8.494 8.679-14.969C91.89 70.432 88.374 64.803 83.221 61.938z" data-fill-palette-color="accent"></path></svg></g></svg></g></svg></g></svg></g></svg></g><defs></defs></svg><rect width="395.52" height="137.87870231812985" fill="none" stroke="none" visibility="hidden"></rect></g></svg></g></svg>